<svg xmlns="http://www.w3.org/2000/svg" width="1024" height="384" viewBox="0 0 1024 384" shape-rendering="crispEdges"><title>Animated environment workflow calibration atlas</title><desc>Deterministically authored sandstone and teal geometry; functional fixture, not production reference artwork.</desc><g id="river-0" transform="translate(0 0)"><defs><clipPath id="river-inset-0"><polygon points="6,16 32,3 58,16 32,29" fill="#fff" /></clipPath></defs><polygon points="0,16 32,0 64,16 32,32" fill="#267e80" /><g clip-path="url(#river-inset-0)"><path d="M-16 6L-10 6" fill="none" stroke="#3b9b99" stroke-width="2"/><path d="M0 6L6 6" fill="none" stroke="#3b9b99" stroke-width="2"/><path d="M16 6L22 6" fill="none" stroke="#3b9b99" stroke-width="2"/><path d="M32 6L38 6" fill="none" stroke="#3b9b99" stroke-width="2"/><path d="M48 6L54 6" fill="none" stroke="#3b9b99" stroke-width="2"/><path d="M64 6L70 6" fill="none" stroke="#3b9b99" stroke-width="2"/><path d="M-8 12L-2 12" fill="none" stroke="#55b9ad" stroke-width="2"/><path d="M8 12L14 12" fill="none" stroke="#55b9ad" stroke-width="2"/><path d="M24 12L30 12" fill="none" stroke="#55b9ad" stroke-width="2"/><path d="M40 12L46 12" fill="none" stroke="#55b9ad" stroke-width="2"/><path d="M56 12L62 12" fill="none" stroke="#55b9ad" stroke-width="2"/><path d="M72 12L78 12" fill="none" stroke="#55b9ad" stroke-width="2"/><path d="M-16 18L-10 18" fill="none" stroke="#3b9b99" stroke-width="2"/><path d="M0 18L6 18" fill="none" stroke="#3b9b99" stroke-width="2"/><path d="M16 18L22 18" fill="none" stroke="#3b9b99" stroke-width="2"/><path d="M32 18L38 18" fill="none" stroke="#3b9b99" stroke-width="2"/><path d="M48 18L54 18" fill="none" stroke="#3b9b99" stroke-width="2"/><path d="M64 18L70 18" fill="none" stroke="#3b9b99" stroke-width="2"/><path d="M-8 24L-2 24" fill="none" stroke="#55b9ad" stroke-width="2"/><path d="M8 24L14 24" fill="none" stroke="#55b9ad" stroke-width="2"/><path d="M24 24L30 24" fill="none" stroke="#55b9ad" stroke-width="2"/><path d="M40 24L46 24" fill="none" stroke="#55b9ad" stroke-width="2"/><path d="M56 24L62 24" fill="none" stroke="#55b9ad" stroke-width="2"/><path d="M72 24L78 24" fill="none" stroke="#55b9ad" stroke-width="2"/></g></g>
<g id="river-1" transform="translate(64 0)"><defs><clipPath id="river-inset-1"><polygon points="6,16 32,3 58,16 32,29" fill="#fff" /></clipPath></defs><polygon points="0,16 32,0 64,16 32,32" fill="#267e80" /><g clip-path="url(#river-inset-1)"><path d="M-12 6L-6 6" fill="none" stroke="#3b9b99" stroke-width="2"/><path d="M4 6L10 6" fill="none" stroke="#3b9b99" stroke-width="2"/><path d="M20 6L26 6" fill="none" stroke="#3b9b99" stroke-width="2"/><path d="M36 6L42 6" fill="none" stroke="#3b9b99" stroke-width="2"/><path d="M52 6L58 6" fill="none" stroke="#3b9b99" stroke-width="2"/><path d="M68 6L74 6" fill="none" stroke="#3b9b99" stroke-width="2"/><path d="M-4 12L2 12" fill="none" stroke="#55b9ad" stroke-width="2"/><path d="M12 12L18 12" fill="none" stroke="#55b9ad" stroke-width="2"/><path d="M28 12L34 12" fill="none" stroke="#55b9ad" stroke-width="2"/><path d="M44 12L50 12" fill="none" stroke="#55b9ad" stroke-width="2"/><path d="M60 12L66 12" fill="none" stroke="#55b9ad" stroke-width="2"/><path d="M76 12L82 12" fill="none" stroke="#55b9ad" stroke-width="2"/><path d="M-12 18L-6 18" fill="none" stroke="#3b9b99" stroke-width="2"/><path d="M4 18L10 18" fill="none" stroke="#3b9b99" stroke-width="2"/><path d="M20 18L26 18" fill="none" stroke="#3b9b99" stroke-width="2"/><path d="M36 18L42 18" fill="none" stroke="#3b9b99" stroke-width="2"/><path d="M52 18L58 18" fill="none" stroke="#3b9b99" stroke-width="2"/><path d="M68 18L74 18" fill="none" stroke="#3b9b99" stroke-width="2"/><path d="M-4 24L2 24" fill="none" stroke="#55b9ad" stroke-width="2"/><path d="M12 24L18 24" fill="none" stroke="#55b9ad" stroke-width="2"/><path d="M28 24L34 24" fill="none" stroke="#55b9ad" stroke-width="2"/><path d="M44 24L50 24" fill="none" stroke="#55b9ad" stroke-width="2"/><path d="M60 24L66 24" fill="none" stroke="#55b9ad" stroke-width="2"/><path d="M76 24L82 24" fill="none" stroke="#55b9ad" stroke-width="2"/></g></g>
<g id="river-2" transform="translate(128 0)"><defs><clipPath id="river-inset-2"><polygon points="6,16 32,3 58,16 32,29" fill="#fff" /></clipPath></defs><polygon points="0,16 32,0 64,16 32,32" fill="#267e80" /><g clip-path="url(#river-inset-2)"><path d="M-8 6L-2 6" fill="none" stroke="#3b9b99" stroke-width="2"/><path d="M8 6L14 6" fill="none" stroke="#3b9b99" stroke-width="2"/><path d="M24 6L30 6" fill="none" stroke="#3b9b99" stroke-width="2"/><path d="M40 6L46 6" fill="none" stroke="#3b9b99" stroke-width="2"/><path d="M56 6L62 6" fill="none" stroke="#3b9b99" stroke-width="2"/><path d="M72 6L78 6" fill="none" stroke="#3b9b99" stroke-width="2"/><path d="M0 12L6 12" fill="none" stroke="#55b9ad" stroke-width="2"/><path d="M16 12L22 12" fill="none" stroke="#55b9ad" stroke-width="2"/><path d="M32 12L38 12" fill="none" stroke="#55b9ad" stroke-width="2"/><path d="M48 12L54 12" fill="none" stroke="#55b9ad" stroke-width="2"/><path d="M64 12L70 12" fill="none" stroke="#55b9ad" stroke-width="2"/><path d="M80 12L86 12" fill="none" stroke="#55b9ad" stroke-width="2"/><path d="M-8 18L-2 18" fill="none" stroke="#3b9b99" stroke-width="2"/><path d="M8 18L14 18" fill="none" stroke="#3b9b99" stroke-width="2"/><path d="M24 18L30 18" fill="none" stroke="#3b9b99" stroke-width="2"/><path d="M40 18L46 18" fill="none" stroke="#3b9b99" stroke-width="2"/><path d="M56 18L62 18" fill="none" stroke="#3b9b99" stroke-width="2"/><path d="M72 18L78 18" fill="none" stroke="#3b9b99" stroke-width="2"/><path d="M0 24L6 24" fill="none" stroke="#55b9ad" stroke-width="2"/><path d="M16 24L22 24" fill="none" stroke="#55b9ad" stroke-width="2"/><path d="M32 24L38 24" fill="none" stroke="#55b9ad" stroke-width="2"/><path d="M48 24L54 24" fill="none" stroke="#55b9ad" stroke-width="2"/><path d="M64 24L70 24" fill="none" stroke="#55b9ad" stroke-width="2"/><path d="M80 24L86 24" fill="none" stroke="#55b9ad" stroke-width="2"/></g></g>
<g id="river-3" transform="translate(192 0)"><defs><clipPath id="river-inset-3"><polygon points="6,16 32,3 58,16 32,29" fill="#fff" /></clipPath></defs><polygon points="0,16 32,0 64,16 32,32" fill="#267e80" /><g clip-path="url(#river-inset-3)"><path d="M-4 6L2 6" fill="none" stroke="#3b9b99" stroke-width="2"/><path d="M12 6L18 6" fill="none" stroke="#3b9b99" stroke-width="2"/><path d="M28 6L34 6" fill="none" stroke="#3b9b99" stroke-width="2"/><path d="M44 6L50 6" fill="none" stroke="#3b9b99" stroke-width="2"/><path d="M60 6L66 6" fill="none" stroke="#3b9b99" stroke-width="2"/><path d="M76 6L82 6" fill="none" stroke="#3b9b99" stroke-width="2"/><path d="M4 12L10 12" fill="none" stroke="#55b9ad" stroke-width="2"/><path d="M20 12L26 12" fill="none" stroke="#55b9ad" stroke-width="2"/><path d="M36 12L42 12" fill="none" stroke="#55b9ad" stroke-width="2"/><path d="M52 12L58 12" fill="none" stroke="#55b9ad" stroke-width="2"/><path d="M68 12L74 12" fill="none" stroke="#55b9ad" stroke-width="2"/><path d="M84 12L90 12" fill="none" stroke="#55b9ad" stroke-width="2"/><path d="M-4 18L2 18" fill="none" stroke="#3b9b99" stroke-width="2"/><path d="M12 18L18 18" fill="none" stroke="#3b9b99" stroke-width="2"/><path d="M28 18L34 18" fill="none" stroke="#3b9b99" stroke-width="2"/><path d="M44 18L50 18" fill="none" stroke="#3b9b99" stroke-width="2"/><path d="M60 18L66 18" fill="none" stroke="#3b9b99" stroke-width="2"/><path d="M76 18L82 18" fill="none" stroke="#3b9b99" stroke-width="2"/><path d="M4 24L10 24" fill="none" stroke="#55b9ad" stroke-width="2"/><path d="M20 24L26 24" fill="none" stroke="#55b9ad" stroke-width="2"/><path d="M36 24L42 24" fill="none" stroke="#55b9ad" stroke-width="2"/><path d="M52 24L58 24" fill="none" stroke="#55b9ad" stroke-width="2"/><path d="M68 24L74 24" fill="none" stroke="#55b9ad" stroke-width="2"/><path d="M84 24L90 24" fill="none" stroke="#55b9ad" stroke-width="2"/></g></g>
<g id="fountain-0" transform="translate(0 32)"><polygon points="16,148 112,100 208,148 112,196" fill="#e4bd7c" /><polygon points="16,148 112,196 112,208 16,160" fill="#af744b" /><polygon points="112,196 208,148 208,160 112,208" fill="#87523c" /><polygon points="32,148 112,108 192,148 112,188" fill="#266f73" /><g fill="none" stroke="#87d6bd" stroke-width="2"><path d="M112 82Q92 66 74 142M112 82Q134 66 150 142"/><path d="M100 94Q83 105 80 153M124 94Q142 105 144 153"/><path d="M64 145l12 -6 12 6 -12 6Z M138 145l12 -6 12 6 -12 6Z"/><path d="M96 169l16 -8 16 8 -16 8Z"/></g><polygon points="104,143 112,139 120,143 112,147" fill="#f2d59a" /><polygon points="104,99 112,103 112,147 104,143" fill="#bb8856" /><polygon points="112,103 120,99 120,143 112,147" fill="#926040" /><polygon points="104,99 112,95 120,99 112,103" fill="#f7d99d" /><polygon points="88,93 112,81 136,93 112,105" fill="#b3794d" /><polygon points="88,88 112,76 136,88 112,100" fill="#e8c387" /><polygon points="94,88 112,79 130,88 112,97" fill="#358e8a" /><polygon points="108,76 112,74 116,76 112,78" fill="#f9dd9f" /><polygon points="108,76 112,78 112,88 108,86" fill="#bc8651" /><polygon points="112,78 116,76 116,86 112,88" fill="#8a5738" /><polygon points="16,148 24,144 112,188 112,196" fill="#efd098" /><polygon points="112,188 200,144 208,148 112,196" fill="#cc9a63" /><path d="M40 160L40 169" fill="none" stroke="#8e5d3f" stroke-width="2"/><path d="M64 172L64 181" fill="none" stroke="#8e5d3f" stroke-width="2"/><path d="M88 184L88 193" fill="none" stroke="#8e5d3f" stroke-width="2"/><path d="M136 184L136 193" fill="none" stroke="#6c4334" stroke-width="2"/><path d="M160 172L160 181" fill="none" stroke="#6c4334" stroke-width="2"/><path d="M184 160L184 169" fill="none" stroke="#6c4334" stroke-width="2"/></g>
<g id="fountain-1" transform="translate(256 32)"><polygon points="16,148 112,100 208,148 112,196" fill="#e4bd7c" /><polygon points="16,148 112,196 112,208 16,160" fill="#af744b" /><polygon points="112,196 208,148 208,160 112,208" fill="#87523c" /><polygon points="32,148 112,108 192,148 112,188" fill="#266f73" /><g fill="none" stroke="#87d6bd" stroke-width="2"><path d="M112 82Q94 66 74 142M112 82Q132 66 150 142"/><path d="M100 94Q83 105 82 153M124 94Q142 105 142 153"/><path d="M62 145l12 -6 12 6 -12 6Z M140 145l12 -6 12 6 -12 6Z"/><path d="M96 171l16 -8 16 8 -16 8Z"/></g><polygon points="104,143 112,139 120,143 112,147" fill="#f2d59a" /><polygon points="104,99 112,103 112,147 104,143" fill="#bb8856" /><polygon points="112,103 120,99 120,143 112,147" fill="#926040" /><polygon points="104,99 112,95 120,99 112,103" fill="#f7d99d" /><polygon points="88,93 112,81 136,93 112,105" fill="#b3794d" /><polygon points="88,88 112,76 136,88 112,100" fill="#e8c387" /><polygon points="94,88 112,79 130,88 112,97" fill="#358e8a" /><polygon points="108,76 112,74 116,76 112,78" fill="#f9dd9f" /><polygon points="108,76 112,78 112,88 108,86" fill="#bc8651" /><polygon points="112,78 116,76 116,86 112,88" fill="#8a5738" /><polygon points="16,148 24,144 112,188 112,196" fill="#efd098" /><polygon points="112,188 200,144 208,148 112,196" fill="#cc9a63" /><path d="M40 160L40 169" fill="none" stroke="#8e5d3f" stroke-width="2"/><path d="M64 172L64 181" fill="none" stroke="#8e5d3f" stroke-width="2"/><path d="M88 184L88 193" fill="none" stroke="#8e5d3f" stroke-width="2"/><path d="M136 184L136 193" fill="none" stroke="#6c4334" stroke-width="2"/><path d="M160 172L160 181" fill="none" stroke="#6c4334" stroke-width="2"/><path d="M184 160L184 169" fill="none" stroke="#6c4334" stroke-width="2"/></g>
<g id="fountain-2" transform="translate(512 32)"><polygon points="16,148 112,100 208,148 112,196" fill="#e4bd7c" /><polygon points="16,148 112,196 112,208 16,160" fill="#af744b" /><polygon points="112,196 208,148 208,160 112,208" fill="#87523c" /><polygon points="32,148 112,108 192,148 112,188" fill="#266f73" /><g fill="none" stroke="#87d6bd" stroke-width="2"><path d="M112 82Q92 66 74 142M112 82Q134 66 150 142"/><path d="M100 94Q83 105 80 153M124 94Q142 105 144 153"/><path d="M64 145l12 -6 12 6 -12 6Z M138 145l12 -6 12 6 -12 6Z"/><path d="M96 169l16 -8 16 8 -16 8Z"/></g><polygon points="104,143 112,139 120,143 112,147" fill="#f2d59a" /><polygon points="104,99 112,103 112,147 104,143" fill="#bb8856" /><polygon points="112,103 120,99 120,143 112,147" fill="#926040" /><polygon points="104,99 112,95 120,99 112,103" fill="#f7d99d" /><polygon points="88,93 112,81 136,93 112,105" fill="#b3794d" /><polygon points="88,88 112,76 136,88 112,100" fill="#e8c387" /><polygon points="94,88 112,79 130,88 112,97" fill="#358e8a" /><polygon points="108,76 112,74 116,76 112,78" fill="#f9dd9f" /><polygon points="108,76 112,78 112,88 108,86" fill="#bc8651" /><polygon points="112,78 116,76 116,86 112,88" fill="#8a5738" /><polygon points="16,148 24,144 112,188 112,196" fill="#efd098" /><polygon points="112,188 200,144 208,148 112,196" fill="#cc9a63" /><path d="M40 160L40 169" fill="none" stroke="#8e5d3f" stroke-width="2"/><path d="M64 172L64 181" fill="none" stroke="#8e5d3f" stroke-width="2"/><path d="M88 184L88 193" fill="none" stroke="#8e5d3f" stroke-width="2"/><path d="M136 184L136 193" fill="none" stroke="#6c4334" stroke-width="2"/><path d="M160 172L160 181" fill="none" stroke="#6c4334" stroke-width="2"/><path d="M184 160L184 169" fill="none" stroke="#6c4334" stroke-width="2"/></g>
<g id="fountain-3" transform="translate(768 32)"><polygon points="16,148 112,100 208,148 112,196" fill="#e4bd7c" /><polygon points="16,148 112,196 112,208 16,160" fill="#af744b" /><polygon points="112,196 208,148 208,160 112,208" fill="#87523c" /><polygon points="32,148 112,108 192,148 112,188" fill="#266f73" /><g fill="none" stroke="#87d6bd" stroke-width="2"><path d="M112 82Q90 66 74 142M112 82Q136 66 150 142"/><path d="M100 94Q83 105 78 153M124 94Q142 105 146 153"/><path d="M66 145l12 -6 12 6 -12 6Z M136 145l12 -6 12 6 -12 6Z"/><path d="M96 167l16 -8 16 8 -16 8Z"/></g><polygon points="104,143 112,139 120,143 112,147" fill="#f2d59a" /><polygon points="104,99 112,103 112,147 104,143" fill="#bb8856" /><polygon points="112,103 120,99 120,143 112,147" fill="#926040" /><polygon points="104,99 112,95 120,99 112,103" fill="#f7d99d" /><polygon points="88,93 112,81 136,93 112,105" fill="#b3794d" /><polygon points="88,88 112,76 136,88 112,100" fill="#e8c387" /><polygon points="94,88 112,79 130,88 112,97" fill="#358e8a" /><polygon points="108,76 112,74 116,76 112,78" fill="#f9dd9f" /><polygon points="108,76 112,78 112,88 108,86" fill="#bc8651" /><polygon points="112,78 116,76 116,86 112,88" fill="#8a5738" /><polygon points="16,148 24,144 112,188 112,196" fill="#efd098" /><polygon points="112,188 200,144 208,148 112,196" fill="#cc9a63" /><path d="M40 160L40 169" fill="none" stroke="#8e5d3f" stroke-width="2"/><path d="M64 172L64 181" fill="none" stroke="#8e5d3f" stroke-width="2"/><path d="M88 184L88 193" fill="none" stroke="#8e5d3f" stroke-width="2"/><path d="M136 184L136 193" fill="none" stroke="#6c4334" stroke-width="2"/><path d="M160 172L160 181" fill="none" stroke="#6c4334" stroke-width="2"/><path d="M184 160L184 169" fill="none" stroke="#6c4334" stroke-width="2"/></g>
<g id="deck" transform="translate(0 272)"><polygon points="0,16 32,0 64,16 32,32" fill="#c7a270" /><polygon points="2,16 32,1 62,16 32,31" fill="#d8b782" /><path d="M16 8L48 24" fill="none" stroke="#b69165" stroke-width="1"/><path d="M16 24L48 8" fill="none" stroke="#b69165" stroke-width="1"/></g>
<g id="pier" transform="translate(80 272)"><polygon points="0,88 32,72 64,88 32,104" fill="#8e674f" /><polygon points="4,18 32,32 32,102 4,88" fill="#b08761" /><polygon points="32,32 60,18 60,88 32,102" fill="#805e49" /><polygon points="0,16 32,0 64,16 32,32" fill="#e1c291" /><path d="M4 40L32 54" fill="none" stroke="#8d654b" stroke-width="2"/><path d="M4 64L32 78" fill="none" stroke="#8d654b" stroke-width="2"/><path d="M32 54L60 40" fill="none" stroke="#624638" stroke-width="2"/><path d="M32 78L60 64" fill="none" stroke="#624638" stroke-width="2"/></g>
<g id="rail-c" transform="translate(160 272)"><polygon points="0,24 28,10 28,34 0,48" fill="#bd9569" /><polygon points="28,10 32,12 32,36 28,34" fill="#8f674c" /><polygon points="0,24 28,10 32,12 4,26" fill="#f0d6a2" /><path d="M9 27L9 42" fill="none" stroke="#8e684e" stroke-width="3"/><path d="M21 21L21 36" fill="none" stroke="#8e684e" stroke-width="3"/></g>
<g id="rail-r" transform="translate(240 272)"><polygon points="32,8 60,22 60,46 32,32" fill="#ae805b" /><polygon points="28,10 32,8 32,32 28,34" fill="#d2ab78" /><polygon points="28,10 32,8 64,24 60,26" fill="#f0d6a2" /><path d="M41 17L41 36" fill="none" stroke="#805940" stroke-width="3"/><path d="M53 23L53 42" fill="none" stroke="#805940" stroke-width="3"/></g>
<g id="proxy" transform="translate(320 272)"></g></svg>
